<?xml version="1.0" encoding="UTF-8"?><svg id="uuid-045a3942-b14f-4ba6-88ae-c243cc32787f" xmlns="http://www.w3.org/2000/svg" viewBox="0 0 20 20"><path d="m5.13,3.78c-.87,0-1.44.59-1.44,1.35s.55,1.35,1.4,1.35c.9,0,1.45-.6,1.45-1.35-.02-.76-.55-1.35-1.42-1.35Z" style="fill:#fff;"/><rect x="3.76" y="7.54" width="2.7" height="8.68" style="fill:#fff;"/><path d="m13.2,7.35c-1.45,0-2.32.83-2.68,1.4h-.05l-.12-1.21h-2.34c.04.78.07,1.69.07,2.77v5.91h2.7v-5c0-.25.02-.5.09-.67.2-.5.64-1.01,1.38-1.01.98,0,1.37.76,1.37,1.88v4.81h2.7v-5.13c0-2.55-1.33-3.74-3.1-3.74Z" style="fill:#fff;"/></svg>