<?xml version="1.0" encoding="utf-8"?>
<!-- Generator: Adobe Illustrator 14.0.0, SVG Export Plug-In . SVG Version: 6.00 Build 43363)  -->
<!DOCTYPE svg PUBLIC "-//W3C//DTD SVG 1.1//EN" "http://www.w3.org/Graphics/SVG/1.1/DTD/svg11.dtd">
<svg version="1.1" id="Layer_1" xmlns="http://www.w3.org/2000/svg" xmlns:xlink="http://www.w3.org/1999/xlink" x="0px" y="0px"
	 width="512px" height="512px" viewBox="0 0 512 512" enable-background="new 0 0 512 512" xml:space="preserve">
<g id="Layer_2">
	<g id="Color">
		<path id="_10.Linkedin" fill="#FFFFFF" d="M256,0C114.615,0,0,114.615,0,256s114.615,256,256,256s256-114.615,256-256
			S397.385,0,256,0z M181.558,390.737h-55.849V210.83h55.849V390.737z M153.6,186.273c-17.952,0.074-32.565-14.418-32.639-32.371
			c-0.074-17.952,14.418-32.565,32.371-32.639c17.938-0.074,32.546,14.398,32.639,32.336
			C186.008,171.542,171.542,186.144,153.6,186.273z M390.736,390.737h-55.814v-87.579c0-20.885-0.404-47.664-29.035-47.664
			c-28.632,0-33.685,22.703-33.685,46.148v89.095h-55.613V210.83h53.592v24.522h0.773c7.445-14.147,25.668-29.069,52.852-29.069
			c56.521,0,66.93,37.255,66.93,85.625V390.737z"/>
	</g>
</g>
</svg>
