<?xml version="1.0" encoding="utf-8"?>
<!-- Generator: Adobe Illustrator 27.3.1, SVG Export Plug-In . SVG Version: 6.00 Build 0)  -->
<svg version="1.1" id="Vrstva_1" xmlns="http://www.w3.org/2000/svg" xmlns:xlink="http://www.w3.org/1999/xlink" x="0px" y="0px"
	 viewBox="0 0 20 20" style="enable-background:new 0 0 20 20;" xml:space="preserve">
<style type="text/css">
	.st0{fill:#FFFFFF;}
	.st1{enable-background:new    ;}
</style>
<g>
	<g>
		<path class="st0" d="M-34.9-36.2c-0.9,0-1.4,0.6-1.4,1.3c0,0.7,0.5,1.3,1.4,1.3c0.9,0,1.5-0.6,1.5-1.3
			C-33.5-35.7-34-36.2-34.9-36.2z"/>
	</g>
	<g>
		<rect x="-36.2" y="-32.5" class="st0" width="2.7" height="8.7"/>
	</g>
	<g>
		<path class="st0" d="M-26.8-32.7c-1.5,0-2.3,0.8-2.7,1.4h-0.1l-0.1-1.2H-32c0,0.8,0.1,1.7,0.1,2.8v5.9h2.7v-5c0-0.2,0-0.5,0.1-0.7
			c0.2-0.5,0.6-1,1.4-1c1,0,1.4,0.8,1.4,1.9v4.8h2.7v-5.1C-23.7-31.5-25-32.7-26.8-32.7z"/>
	</g>
</g>
<g>
	<path class="st0" d="M13.5-34.1h-2c-0.2,0-0.5,0.3-0.5,0.7v1.4h2.5v2.1H11v6.2H8.6v-6.2H6.5V-32h2.1v-1.2c0-1.7,1.2-3.2,2.9-3.2h2
		V-34.1z"/>
</g>
<path class="st0" d="M-22.6,7.3c-0.1-0.4-0.2-0.8-0.3-1.1c-0.2-0.4-0.3-0.7-0.6-1c-0.2-0.3-0.5-0.6-0.7-0.9
	c-0.3-0.3-0.6-0.5-0.9-0.7c-0.3-0.2-0.7-0.4-1-0.6c-0.4-0.1-0.7-0.3-1.1-0.3c-0.8-0.2-1.6-0.2-2.3,0c-0.4,0.1-0.8,0.2-1.1,0.3
	c-0.4,0.1-0.7,0.3-1,0.6c-0.3,0.2-0.6,0.5-0.9,0.7c-0.3,0.3-0.5,0.6-0.7,0.9c-0.2,0.3-0.4,0.7-0.6,1c-0.1,0.4-0.3,0.7-0.3,1.1
	c-0.1,0.4-0.1,0.8-0.1,1.2s0,0.8,0.1,1.2c0.1,0.4,0.2,0.8,0.3,1.1c0.1,0.4,0.3,0.7,0.6,1c0,0,0.1,0.1,0.1,0.1l-4.2,4.2l1.4,1.4
	l4.2-4.2c0,0,0.1,0.1,0.1,0.1c0.3,0.2,0.7,0.4,1,0.6c0.4,0.2,0.7,0.3,1.1,0.3c0.4,0.1,0.8,0.1,1.2,0.1c0.4,0,0.8,0,1.2-0.1
	c0.4-0.1,0.8-0.2,1.1-0.3c0.4-0.2,0.7-0.3,1-0.6c0.3-0.2,0.6-0.5,0.9-0.7c0.3-0.3,0.5-0.6,0.7-0.9c0.2-0.3,0.4-0.7,0.6-1
	c0.2-0.4,0.3-0.7,0.3-1.1c0.1-0.4,0.1-0.8,0.1-1.2S-22.5,7.7-22.6,7.3z M-24.6,9.2c0,0.3-0.1,0.5-0.2,0.7c-0.1,0.2-0.2,0.5-0.4,0.7
	c-0.1,0.2-0.3,0.4-0.5,0.6c-0.2,0.2-0.4,0.4-0.6,0.5c-0.2,0.1-0.4,0.3-0.7,0.4c-0.2,0.1-0.5,0.2-0.7,0.2c-0.5,0.1-1,0.1-1.6,0
	c-0.3-0.1-0.5-0.1-0.7-0.2s-0.5-0.2-0.7-0.4c-0.2-0.1-0.4-0.3-0.6-0.5c-0.2-0.2-0.4-0.4-0.5-0.6c-0.1-0.2-0.3-0.5-0.4-0.7
	c-0.1-0.2-0.2-0.5-0.2-0.7c-0.1-0.3-0.1-0.5-0.1-0.8s0-0.5,0.1-0.8c0.1-0.3,0.1-0.5,0.2-0.8c0.1-0.2,0.2-0.5,0.4-0.7
	c0.1-0.2,0.3-0.4,0.5-0.6c0.2-0.2,0.4-0.4,0.6-0.5c0.2-0.1,0.4-0.3,0.7-0.4c0.2-0.1,0.5-0.2,0.7-0.2c0.3-0.1,0.5-0.1,0.8-0.1
	c0.3,0,0.5,0,0.8,0.1c0.3,0.1,0.5,0.1,0.7,0.2c0.2,0.1,0.5,0.2,0.7,0.4c0.2,0.1,0.4,0.3,0.6,0.5c0.2,0.2,0.3,0.4,0.5,0.6
	c0.1,0.2,0.3,0.4,0.4,0.7c0.1,0.2,0.2,0.5,0.2,0.8c0.1,0.3,0.1,0.5,0.1,0.8S-24.5,9-24.6,9.2z"/>
<polygon class="st0" points="52.2,1.1 43.4,9.9 34.6,1.1 34.6,18.9 38.6,18.9 38.6,10.3 43.4,15.1 48.2,10.3 48.2,18.9 52.2,18.9 
	"/>
<polygon class="st0" points="62.3,1.1 53.6,18.9 57.8,18.9 62.3,9.3 64.9,14.9 62.3,14.9 62.3,18.9 71,18.9 "/>
<g>
	<g class="st1">
		<g>
			<path class="st0" d="M70.3,10.1c0-5,4-9,9-9c3,0,5.4,1.2,7.1,3.3l-3,2.5c-1.1-1.3-2.2-2-4.1-2c-2.9,0-5,2.4-5,5.2s2.2,5.2,5,5.2
				c1.4,0,2.5-0.2,3.4-0.9v-2.5h-4.2l1.7-3.7h6.4v8c-1.7,2-4.3,2.9-7.2,2.9C74.3,19.1,70.3,15,70.3,10.1"/>
		</g>
	</g>
</g>
<g>
	<rect x="89.8" y="1.3" class="st0" width="4" height="17.6"/>
</g>
<g>
	<g class="st1">
		<g>
			<path class="st0" d="M96.5,10.1c0-5,4-9,9-9c3,0,5.7,1.5,7.4,3.8l-3,2.5c-0.9-1.4-2.5-2.5-4.4-2.5c-2.9,0-5,2.4-5,5.2
				s2.2,5.2,5,5.2c1.9,0,3.5-1,4.4-2.5l3,2.5c-1.6,2.3-4.3,3.8-7.4,3.8C100.6,19.1,96.5,15,96.5,10.1"/>
		</g>
	</g>
</g>
<g>
	<polygon class="st0" points="135.8,1.3 135.8,18.9 146.1,18.9 146.1,16 138.7,16 138.7,1.3 	"/>
	<path class="st0" d="M156.6,7.1l2.4,5.2h-4.9L156.6,7.1z M156.6,1.1L148,18.9h3.1l1.8-3.9h7.4l1.8,3.9h3.1L156.6,1.1z"/>
</g>
<g>
	<g class="st1">
		<g>
			<path class="st0" d="M174.5,16.2c2,0,2.9-1.1,2.9-2.5c0-1.4-1-2.6-2.9-2.6h-3.9v5.1H174.5z M173.6,8.7c1.8,0,2.7-1,2.7-2.4
				c0-1.3-0.9-2.4-2.7-2.4h-3v4.8H173.6z M167.8,1.3h6.2c3.2,0,5.2,2.2,5.2,4.8c0,1.6-0.6,2.7-1.6,3.4c1.6,0.7,2.8,2.1,2.8,4.3
				c0,3.1-2.5,5.1-5.9,5.1h-6.7V1.3z"/>
		</g>
	</g>
</g>
<polygon class="st0" points="123.7,3.3 125.4,8.5 130.9,8.6 126.5,11.8 128.2,17 123.7,13.8 119.2,17 120.9,11.8 116.5,8.6 122,8.5 
	"/>
<polygon points="52.2,1.1 43.4,9.9 34.6,1.1 34.6,18.9 38.6,18.9 38.6,10.3 43.4,15.1 48.2,10.3 48.2,18.9 52.2,18.9 "/>
<polygon points="62.3,1.1 53.6,18.9 57.8,18.9 62.3,9.3 64.9,14.9 62.3,14.9 62.3,18.9 71,18.9 "/>
<g>
	<g class="st1">
		<g>
			<path d="M70.3,10.1c0-5,4-9,9-9c3,0,5.4,1.2,7.1,3.3l-3,2.5c-1.1-1.3-2.2-2-4.1-2c-2.9,0-5,2.4-5,5.2s2.2,5.2,5,5.2
				c1.4,0,2.5-0.2,3.4-0.9v-2.5h-4.2l1.7-3.7h6.4v8c-1.7,2-4.3,2.9-7.2,2.9C74.3,19.1,70.3,15,70.3,10.1"/>
		</g>
	</g>
</g>
<g>
	<rect x="89.8" y="1.3" width="4" height="17.6"/>
</g>
<g>
	<g class="st1">
		<g>
			<path d="M96.5,10.1c0-5,4-9,9-9c3,0,5.7,1.5,7.4,3.8l-3,2.5c-0.9-1.4-2.5-2.5-4.4-2.5c-2.9,0-5,2.4-5,5.2s2.2,5.2,5,5.2
				c1.9,0,3.5-1,4.4-2.5l3,2.5c-1.6,2.3-4.3,3.8-7.4,3.8C100.6,19.1,96.5,15,96.5,10.1"/>
		</g>
	</g>
</g>
<g>
	<polygon points="135.8,1.3 135.8,18.9 146.1,18.9 146.1,16 138.7,16 138.7,1.3 	"/>
	<path d="M156.6,7.1l2.4,5.2h-4.9L156.6,7.1z M156.6,1.1L148,18.9h3.1l1.8-3.9h7.4l1.8,3.9h3.1L156.6,1.1z"/>
</g>
<g>
	<g class="st1">
		<g>
			<path d="M174.5,16.2c2,0,2.9-1.1,2.9-2.5c0-1.4-1-2.6-2.9-2.6h-3.9v5.1H174.5z M173.6,8.7c1.8,0,2.7-1,2.7-2.4
				c0-1.3-0.9-2.4-2.7-2.4h-3v4.8H173.6z M167.8,1.3h6.2c3.2,0,5.2,2.2,5.2,4.8c0,1.6-0.6,2.7-1.6,3.4c1.6,0.7,2.8,2.1,2.8,4.3
				c0,3.1-2.5,5.1-5.9,5.1h-6.7V1.3z"/>
		</g>
	</g>
</g>
<polygon points="123.7,3.3 125.4,8.5 130.9,8.6 126.5,11.8 128.2,17 123.7,13.8 119.2,17 120.9,11.8 116.5,8.6 122,8.5 "/>
<polygon points="18.2,3.2 16.8,1.8 10,8.6 3.2,1.8 1.8,3.2 8.6,10 1.8,16.8 3.2,18.2 10,11.4 16.8,18.2 18.2,16.8 11.4,10 "/>
</svg>
