<?xml version="1.0" encoding="UTF-8"?><svg id="uuid-ee8c2cf2-5702-4e52-847f-58604c9cfe44" xmlns="http://www.w3.org/2000/svg" viewBox="0 0 20 20"><path d="m17.4,7.31c-.08-.38-.19-.76-.34-1.13-.15-.36-.34-.71-.55-1.03-.22-.33-.47-.63-.75-.91-.28-.28-.58-.53-.91-.74-.32-.22-.67-.4-1.04-.55-.36-.15-.74-.26-1.13-.34-.77-.15-1.56-.15-2.33,0-.38.08-.76.19-1.12.34-.36.15-.71.34-1.04.55-.33.22-.63.47-.91.75-.28.28-.53.58-.75.91-.22.33-.41.68-.55,1.04-.15.36-.26.74-.34,1.12-.08.39-.11.78-.11,1.17s.04.78.12,1.17c.08.38.19.76.34,1.12.15.36.33.71.55,1.04.03.05.08.09.11.13l-4.17,4.17,1.41,1.41,4.17-4.17s.08.08.13.11c.32.22.67.4,1.04.55.36.15.74.27,1.12.34.38.08.78.11,1.17.11s.79-.04,1.17-.11c.39-.08.76-.19,1.12-.34.37-.15.71-.34,1.04-.55.33-.22.63-.47.91-.74.27-.27.53-.58.75-.91.21-.32.4-.67.55-1.04.15-.36.26-.74.34-1.12.08-.38.12-.77.12-1.17s-.04-.79-.11-1.17Zm-1.96,1.95c-.05.25-.13.5-.22.75-.1.24-.23.48-.37.69-.15.22-.31.42-.5.61-.18.18-.39.35-.6.5-.21.14-.45.27-.69.37-.24.1-.49.18-.75.23-.51.1-1.04.1-1.56,0-.25-.05-.5-.13-.75-.23s-.47-.22-.69-.37c-.22-.15-.42-.31-.6-.5-.18-.19-.35-.39-.5-.6-.15-.22-.27-.45-.37-.69-.1-.24-.18-.49-.23-.75-.05-.26-.08-.52-.08-.78s.03-.52.08-.78c.05-.26.13-.51.23-.75.1-.24.22-.47.37-.69s.31-.42.5-.6c.18-.18.39-.35.6-.5.22-.15.45-.27.69-.37.24-.1.49-.18.75-.23.26-.05.52-.08.78-.08s.52.03.78.08c.26.05.51.13.75.23.24.1.47.22.69.37.22.14.42.31.6.5.18.18.35.38.5.6.14.22.27.45.37.69.1.24.18.49.23.75.05.25.08.51.08.78s-.03.52-.08.78Z" style="fill:#fff;"/></svg>