<?xml version="1.0" encoding="utf-8"?>
<!-- Generator: Adobe Illustrator 27.3.1, SVG Export Plug-In . SVG Version: 6.00 Build 0)  -->
<svg version="1.1" id="Vrstva_1" xmlns="http://www.w3.org/2000/svg" xmlns:xlink="http://www.w3.org/1999/xlink" x="0px" y="0px"
	 viewBox="0 0 148 20" style="enable-background:new 0 0 148 20;" xml:space="preserve">
<style type="text/css">
	.st0{fill:#FFFFFF;}
	.st1{enable-background:new    ;}
</style>
<g>
	<g>
		<path class="st0" d="M-68.1-36.2c-0.9,0-1.4,0.6-1.4,1.3c0,0.7,0.5,1.3,1.4,1.3c0.9,0,1.5-0.6,1.5-1.3
			C-66.7-35.7-67.3-36.2-68.1-36.2z"/>
	</g>
	<g>
		<rect x="-69.5" y="-32.5" class="st0" width="2.7" height="8.7"/>
	</g>
	<g>
		<path class="st0" d="M-60.1-32.7c-1.5,0-2.3,0.8-2.7,1.4h-0.1l-0.1-1.2h-2.3c0,0.8,0.1,1.7,0.1,2.8v5.9h2.7v-5
			c0-0.2,0-0.5,0.1-0.7c0.2-0.5,0.6-1,1.4-1c1,0,1.4,0.8,1.4,1.9v4.8h2.7v-5.1C-57-31.5-58.3-32.7-60.1-32.7z"/>
	</g>
</g>
<g>
	<path class="st0" d="M-19.8-34.1h-2c-0.2,0-0.5,0.3-0.5,0.7v1.4h2.5v2.1h-2.5v6.2h-2.4v-6.2h-2.1V-32h2.1v-1.2
		c0-1.7,1.2-3.2,2.9-3.2h2V-34.1z"/>
</g>
<path class="st0" d="M-55.9,7.3c-0.1-0.4-0.2-0.8-0.3-1.1c-0.2-0.4-0.3-0.7-0.6-1c-0.2-0.3-0.5-0.6-0.7-0.9
	c-0.3-0.3-0.6-0.5-0.9-0.7c-0.3-0.2-0.7-0.4-1-0.6c-0.4-0.1-0.7-0.3-1.1-0.3c-0.8-0.2-1.6-0.2-2.3,0c-0.4,0.1-0.8,0.2-1.1,0.3
	c-0.4,0.1-0.7,0.3-1,0.6c-0.3,0.2-0.6,0.5-0.9,0.7c-0.3,0.3-0.5,0.6-0.7,0.9c-0.2,0.3-0.4,0.7-0.6,1c-0.1,0.4-0.3,0.7-0.3,1.1
	c-0.1,0.4-0.1,0.8-0.1,1.2s0,0.8,0.1,1.2c0.1,0.4,0.2,0.8,0.3,1.1c0.1,0.4,0.3,0.7,0.6,1c0,0,0.1,0.1,0.1,0.1l-4.2,4.2l1.4,1.4
	l4.2-4.2c0,0,0.1,0.1,0.1,0.1c0.3,0.2,0.7,0.4,1,0.6c0.4,0.2,0.7,0.3,1.1,0.3c0.4,0.1,0.8,0.1,1.2,0.1c0.4,0,0.8,0,1.2-0.1
	c0.4-0.1,0.8-0.2,1.1-0.3c0.4-0.2,0.7-0.3,1-0.6c0.3-0.2,0.6-0.5,0.9-0.7c0.3-0.3,0.5-0.6,0.7-0.9c0.2-0.3,0.4-0.7,0.6-1
	c0.2-0.4,0.3-0.7,0.3-1.1c0.1-0.4,0.1-0.8,0.1-1.2S-55.8,7.7-55.9,7.3z M-57.8,9.2c0,0.3-0.1,0.5-0.2,0.7c-0.1,0.2-0.2,0.5-0.4,0.7
	c-0.1,0.2-0.3,0.4-0.5,0.6c-0.2,0.2-0.4,0.4-0.6,0.5c-0.2,0.1-0.4,0.3-0.7,0.4c-0.2,0.1-0.5,0.2-0.7,0.2c-0.5,0.1-1,0.1-1.6,0
	c-0.3-0.1-0.5-0.1-0.7-0.2s-0.5-0.2-0.7-0.4c-0.2-0.1-0.4-0.3-0.6-0.5c-0.2-0.2-0.4-0.4-0.5-0.6c-0.1-0.2-0.3-0.5-0.4-0.7
	c-0.1-0.2-0.2-0.5-0.2-0.7c-0.1-0.3-0.1-0.5-0.1-0.8s0-0.5,0.1-0.8c0.1-0.3,0.1-0.5,0.2-0.8c0.1-0.2,0.2-0.5,0.4-0.7
	c0.1-0.2,0.3-0.4,0.5-0.6c0.2-0.2,0.4-0.4,0.6-0.5c0.2-0.1,0.4-0.3,0.7-0.4c0.2-0.1,0.5-0.2,0.7-0.2c0.3-0.1,0.5-0.1,0.8-0.1
	c0.3,0,0.5,0,0.8,0.1c0.3,0.1,0.5,0.1,0.7,0.2c0.2,0.1,0.5,0.2,0.7,0.4c0.2,0.1,0.4,0.3,0.6,0.5c0.2,0.2,0.3,0.4,0.5,0.6
	c0.1,0.2,0.3,0.4,0.4,0.7c0.1,0.2,0.2,0.5,0.2,0.8c0.1,0.3,0.1,0.5,0.1,0.8S-57.8,9-57.8,9.2z"/>
<polygon class="st0" points="18.9,1.1 10.2,9.9 1.4,1.1 1.4,18.9 5.3,18.9 5.3,10.3 10.2,15.1 15,10.3 15,18.9 18.9,18.9 "/>
<polygon class="st0" points="29,1.1 20.3,18.9 24.5,18.9 29,9.3 31.7,14.9 29,14.9 29,18.9 37.7,18.9 "/>
<g>
	<g class="st1">
		<g>
			<path class="st0" d="M37,10.1c0-5,4-9,9-9c3,0,5.4,1.2,7.1,3.3l-3,2.5c-1.1-1.3-2.2-2-4.1-2c-2.9,0-5,2.4-5,5.2s2.2,5.2,5,5.2
				c1.4,0,2.5-0.2,3.4-0.9v-2.5h-4.2l1.7-3.7h6.4v8c-1.7,2-4.3,2.9-7.2,2.9C41.1,19.1,37,15,37,10.1"/>
		</g>
	</g>
</g>
<g>
	<rect x="56.5" y="1.3" class="st0" width="4" height="17.6"/>
</g>
<g>
	<g class="st1">
		<g>
			<path class="st0" d="M63.3,10.1c0-5,4-9,9-9c3,0,5.7,1.5,7.4,3.8l-3,2.5c-0.9-1.4-2.5-2.5-4.4-2.5c-2.9,0-5,2.4-5,5.2
				s2.2,5.2,5,5.2c1.9,0,3.5-1,4.4-2.5l3,2.5c-1.6,2.3-4.3,3.8-7.4,3.8C67.3,19.1,63.3,15,63.3,10.1"/>
		</g>
	</g>
</g>
<g>
	<polygon class="st0" points="102.5,1.3 102.5,18.9 112.8,18.9 112.8,16 105.4,16 105.4,1.3 	"/>
	<path class="st0" d="M123.3,7.1l2.4,5.2h-4.9L123.3,7.1z M123.3,1.1l-8.6,17.8h3.1l1.8-3.9h7.4l1.8,3.9h3.1L123.3,1.1z"/>
</g>
<g>
	<g class="st1">
		<g>
			<path class="st0" d="M141.2,16.2c2,0,2.9-1.1,2.9-2.5c0-1.4-1-2.6-2.9-2.6h-3.9v5.1H141.2z M140.4,8.7c1.8,0,2.7-1,2.7-2.4
				c0-1.3-0.9-2.4-2.7-2.4h-3v4.8H140.4z M134.5,1.3h6.2c3.2,0,5.2,2.2,5.2,4.8c0,1.6-0.6,2.7-1.6,3.4c1.6,0.7,2.8,2.1,2.8,4.3
				c0,3.1-2.5,5.1-5.9,5.1h-6.7V1.3z"/>
		</g>
	</g>
</g>
<polygon class="st0" points="90.4,3.3 92.1,8.5 97.6,8.6 93.2,11.8 94.9,17 90.4,13.8 86,17 87.6,11.8 83.2,8.6 88.7,8.5 "/>
<polygon points="18.9,1.1 10.2,9.9 1.4,1.1 1.4,18.9 5.3,18.9 5.3,10.3 10.2,15.1 15,10.3 15,18.9 18.9,18.9 "/>
<polygon points="29,1.1 20.3,18.9 24.5,18.9 29,9.3 31.7,14.9 29,14.9 29,18.9 37.7,18.9 "/>
<g>
	<g class="st1">
		<g>
			<path d="M37,10.1c0-5,4-9,9-9c3,0,5.4,1.2,7.1,3.3l-3,2.5c-1.1-1.3-2.2-2-4.1-2c-2.9,0-5,2.4-5,5.2s2.2,5.2,5,5.2
				c1.4,0,2.5-0.2,3.4-0.9v-2.5h-4.2l1.7-3.7h6.4v8c-1.7,2-4.3,2.9-7.2,2.9C41.1,19.1,37,15,37,10.1"/>
		</g>
	</g>
</g>
<g>
	<rect x="56.5" y="1.3" width="4" height="17.6"/>
</g>
<g>
	<g class="st1">
		<g>
			<path d="M63.3,10.1c0-5,4-9,9-9c3,0,5.7,1.5,7.4,3.8l-3,2.5c-0.9-1.4-2.5-2.5-4.4-2.5c-2.9,0-5,2.4-5,5.2s2.2,5.2,5,5.2
				c1.9,0,3.5-1,4.4-2.5l3,2.5c-1.6,2.3-4.3,3.8-7.4,3.8C67.3,19.1,63.3,15,63.3,10.1"/>
		</g>
	</g>
</g>
<g>
	<polygon points="102.5,1.3 102.5,18.9 112.8,18.9 112.8,16 105.4,16 105.4,1.3 	"/>
	<path d="M123.3,7.1l2.4,5.2h-4.9L123.3,7.1z M123.3,1.1l-8.6,17.8h3.1l1.8-3.9h7.4l1.8,3.9h3.1L123.3,1.1z"/>
</g>
<g>
	<g class="st1">
		<g>
			<path d="M141.2,16.2c2,0,2.9-1.1,2.9-2.5c0-1.4-1-2.6-2.9-2.6h-3.9v5.1H141.2z M140.4,8.7c1.8,0,2.7-1,2.7-2.4
				c0-1.3-0.9-2.4-2.7-2.4h-3v4.8H140.4z M134.5,1.3h6.2c3.2,0,5.2,2.2,5.2,4.8c0,1.6-0.6,2.7-1.6,3.4c1.6,0.7,2.8,2.1,2.8,4.3
				c0,3.1-2.5,5.1-5.9,5.1h-6.7V1.3z"/>
		</g>
	</g>
</g>
<polygon points="90.4,3.3 92.1,8.5 97.6,8.6 93.2,11.8 94.9,17 90.4,13.8 86,17 87.6,11.8 83.2,8.6 88.7,8.5 "/>
<polygon points="-15.1,3.2 -16.5,1.8 -23.3,8.6 -30.1,1.8 -31.5,3.2 -24.7,10 -31.5,16.8 -30.1,18.2 -23.3,11.4 -16.5,18.2 
	-15.1,16.8 -21.9,10 "/>
</svg>
